<svg xmlns="http://www.w3.org/2000/svg" viewBox="0 0 60 60" xml:space="preserve" style="fill-rule:evenodd;clip-rule:evenodd;stroke-linejoin:round;stroke-miterlimit:2"><path d="M56.913 45.79c-1.532-.698-3.072-.989-5.688-2.844-6.654-4.72-9.649-10.186-5.388-21.751 2.459-6.671 3.464-11.579 3.319-18.053-.082-.064-.406-.277-.483-.341-1.326 8.045-3.543 12.011-8.535 20.115-11.296 18.345-.675 29.574 4.344 33.626 4.646-2.232 9.509-6.103 12.431-10.752" style="fill:#211a52"></path><path d="M34.789 22.288C42.666 12.334 45.893 8.169 46.59 1.485c-.089-.049-.331-.177-.419-.226-2.133 8.075-6.548 11.606-19.729 20.723-13.703 9.479-13.218 23.758-9.483 34.178a30.832 30.832 0 0 0 14.119 3.409c1.084 0 2.155-.057 3.211-.167-9.425-15.077-8.689-25.507.5-37.114" style="fill:#211a52"></path><path d="M29.421 14.73c8.937-4.424 12.9-8.843 14.652-14.545A8.04 8.04 0 0 0 43.654 0c-5.062 8.673-11.345 9.312-25.643 11.701C9.8 13.075 5.331 16.66.724 21.715.299 23.528-.003 26.428 0 28.356c.01 7.442 2.552 14.473 7.13 19.925.256-23.296 11.126-28.021 22.291-33.551" style="fill:#211a52"></path></svg>