<svg xmlns="http://www.w3.org/2000/svg" xmlns:xlink="http://www.w3.org/1999/xlink" viewBox="0 0 171.5 154.5"><defs><style>.cls-1{fill:#ffd64f;}.cls-2{fill:#005581;}.cls-3{fill:url(#linear-gradient);}</style><linearGradient id="linear-gradient" x1="6.34" y1="106.43" x2="174.12" y2="103.78" gradientUnits="userSpaceOnUse"><stop offset="0" stop-color="#74cee2"/><stop offset="1" stop-color="#fff"/></linearGradient></defs><g id="Layer_2" data-name="Layer 2"><g id="Calque_1" data-name="Calque 1"><path class="cls-1" d="M26.75,53.09a69.59,69.59,0,1,1,128.14,53.14h5.46A74.49,74.49,0,1,0,21.62,53.09Z"/><polygon class="cls-2" points="101.86 52.9 54.02 52.9 77.94 28.98 101.86 52.9"/><path class="cls-2" d="M54.93,112.54a76.75,76.75,0,0,1,12.36-.87c5.37,0,9.12.43,12.37,2.37a9.23,9.23,0,0,1,5,8.43c0,3.56-1.87,7.06-6.55,8.93v.18C83.15,133,86,136.83,86,141.64a11.06,11.06,0,0,1-4.25,8.86c-3,2.5-8,4-16.67,4a75.71,75.71,0,0,1-10.18-.62Zm10.68,15.92h2.06c4.12,0,6.24-1.87,6.24-4.68,0-2.56-1.68-4.31-5.12-4.31a13.2,13.2,0,0,0-3.18.25Zm0,17.92a16.57,16.57,0,0,0,2.75.13c3.37,0,6.36-1.56,6.36-5.25s-3-5.12-6.74-5.12H65.61Z"/><path class="cls-2" d="M92.08,112.54a75,75,0,0,1,12.49-.87c5.81,0,10.05.93,13.05,3.31a12.47,12.47,0,0,1,4.49,9.92c0,4.5-1.49,8.12-4,10.56-3.19,2.87-8,4.18-12.93,4.18-.94,0-1.75-.06-2.37-.12v14.54H92.08Zm10.68,18.61a10.48,10.48,0,0,0,2.12.12c4.25,0,6.56-2.43,6.56-5.93,0-3.18-1.88-5.43-5.81-5.43a13.29,13.29,0,0,0-2.87.25Z"/><path class="cls-2" d="M138.22,112v42.08h-10.8V112Z"/><path class="cls-2" d="M169.94,136.83H156.58v8.3H171.5v8.93H145.78V112h24.91v8.93H156.58V128h13.36Z"/><path class="cls-3" d="M101.86,106H54V58.15h47.84Zm-54-47.68H0V154H47.83Z"/></g></g></svg>